<?xml version="1.0" standalone="no"?>
<!DOCTYPE svg PUBLIC "-//W3C//DTD SVG 20010904//EN"
 "http://www.w3.org/TR/2001/REC-SVG-20010904/DTD/svg10.dtd">
<svg version="1.0" xmlns="http://www.w3.org/2000/svg"
 width="512.000000pt" height="512.000000pt" viewBox="0 0 512.000000 512.000000"
 preserveAspectRatio="xMidYMid meet">
<metadata>
Created by potrace 1.14, written by Peter Selinger 2001-2017
</metadata>
<g transform="translate(0.000000,512.000000) scale(0.100000,-0.100000)"
fill="#000000" stroke="none">
<path d="M794 3580 c-38 -27 -79 -56 -91 -65 -28 -20 -29 -41 -3 -55 20 -11
20 -21 20 -768 l0 -757 238 -237 c130 -130 265 -264 299 -298 l63 -60 1532 2
1533 3 3 835 2 835 -288 288 c-158 158 -294 292 -302 298 -10 6 -539 9 -1455
7 -1061 -1 -1446 1 -1461 10 -18 9 -30 4 -90 -38z m964 -442 c3 -13 -3 -18
-22 -18 -14 0 -41 -7 -60 -16 -61 -30 -67 -62 -64 -355 l3 -254 255 0 255 0 3
244 c2 201 0 253 -13 292 -18 52 -47 77 -101 86 -25 4 -34 10 -32 22 3 14 35
16 298 16 273 0 295 -1 298 -17 3 -13 -3 -18 -22 -18 -38 0 -93 -30 -105 -57
-8 -16 -11 -202 -11 -594 0 -555 1 -572 20 -599 14 -20 35 -32 70 -40 52 -12
68 -24 50 -35 -18 -11 -592 -7 -603 4 -10 10 1 18 35 25 84 19 90 24 108 106
5 25 10 149 10 277 0 230 0 232 -22 244 -16 9 -84 10 -250 6 -126 -3 -233 -9
-238 -12 -6 -4 -10 -102 -10 -261 0 -233 2 -258 20 -297 16 -34 28 -45 60 -55
22 -6 47 -12 55 -12 15 0 22 -30 8 -30 -111 -3 -596 0 -600 4 -9 9 8 26 26 26
43 0 91 30 106 66 22 54 23 1127 0 1170 -17 33 -68 63 -107 64 -16 0 -28 4
-28 8 0 28 30 31 314 29 268 -2 291 -3 294 -19z m1615 -16 c9 -21 17 -45 17
-53 0 -8 4 -19 8 -24 7 -8 35 -75 72 -170 7 -20 19 -50 37 -95 6 -14 17 -38
24 -55 7 -16 14 -34 14 -40 1 -5 7 -23 15 -40 7 -16 17 -41 22 -55 6 -14 14
-33 19 -42 5 -10 9 -25 9 -33 0 -8 5 -24 10 -35 6 -11 15 -29 20 -40 6 -11 10
-26 10 -33 0 -8 10 -34 23 -58 12 -24 28 -62 35 -84 13 -39 18 -52 40 -105 5
-14 27 -68 47 -120 59 -150 74 -177 110 -194 43 -21 62 -44 43 -51 -8 -3 -141
-7 -296 -8 -209 -1 -283 1 -286 10 -7 16 15 32 55 39 42 8 69 31 69 57 0 22
-17 81 -31 109 -5 10 -9 27 -9 37 0 11 -4 23 -10 26 -5 3 -10 15 -10 26 0 10
-4 27 -9 37 -22 43 -56 136 -53 144 6 19 -49 27 -204 29 -93 1 -180 5 -194 9
-23 7 -28 3 -44 -34 -10 -22 -22 -49 -27 -58 -5 -10 -9 -27 -9 -37 0 -11 -4
-23 -10 -26 -5 -3 -10 -17 -10 -30 0 -13 -4 -26 -9 -29 -5 -3 -12 -24 -15 -46
-3 -22 -9 -57 -12 -79 -4 -23 -2 -41 5 -45 6 -4 11 -14 11 -23 0 -25 52 -63
86 -63 35 0 69 -21 62 -40 -3 -9 -48 -12 -192 -12 -104 1 -191 4 -194 7 -10
10 13 40 33 44 45 8 113 120 165 271 7 19 21 54 31 77 11 24 19 49 19 56 0 7
7 22 15 33 8 10 15 27 15 36 0 9 7 21 15 26 9 4 18 26 21 48 6 41 9 49 43 124
11 25 23 57 27 73 3 15 10 30 15 33 5 3 9 14 9 25 0 10 4 19 10 19 5 0 14 19
20 43 6 23 17 56 24 72 18 39 29 67 30 80 1 6 7 26 15 45 7 19 16 44 21 55 13
34 32 79 41 97 5 10 9 22 9 27 0 5 7 25 15 45 l15 36 68 0 68 0 17 -38z"/>
<path d="M3129 2833 c-1 -4 -1 -12 0 -17 3 -17 -50 -146 -60 -146 -3 0 -9 -16
-12 -34 -5 -32 -25 -85 -48 -128 -5 -10 -9 -27 -9 -37 0 -11 -4 -23 -10 -26
-5 -3 -10 -14 -10 -24 0 -10 -9 -26 -20 -36 -11 -10 -20 -27 -20 -38 0 -17 5
-19 31 -13 17 3 106 6 196 6 l165 0 -7 33 c-4 17 -11 36 -16 41 -5 6 -9 18 -9
28 0 10 -4 26 -9 36 -5 9 -15 36 -22 60 -7 23 -18 47 -26 53 -7 6 -13 22 -13
35 0 12 -4 26 -10 29 -5 3 -10 17 -10 30 0 13 -4 27 -10 30 -5 3 -10 16 -10
29 0 12 -4 26 -9 32 -5 5 -11 20 -13 34 -3 23 -36 43 -39 23z"/>
</g>
</svg>
